# xmcd CD database file
#
# Track frame offsets:
#	150
#	22687
#	44112
#	63785
#	80422
#	103635
#	122390
#	142980
#	164650
#	182170
#	204137
#	227775
#
# Disc length: 3355 seconds
#
# Revision: 10
# Processed by: cddbd v1.5.2PL0 Copyright (c) Steve Scherf et al.
# Submitted via: CDex 1.51
#
DISCID=950d190c
DTITLE=The Jimmy Rogers All-Stars - Blues Blues Blues
DYEAR=1999
DGENRE=Blues
TTITLE0=Blow Wind Blow (featuring Jeff Healy)
TTITLE1=Blues All Day Long (featuring Eric Clapton)
TTITLE2=Trouble No More (featuring Mick Jagger and Keith Richards)
TTITLE3=Bright Lights Big City (featuring Taj Mahal)
TTITLE4=Ev'ry Day I Have The Blues (featuring Lowell Fulson)
TTITLE5=Sweet Home Chicago (featuring Stephen Stills)
TTITLE6=Don't Start Me To Talkin' (featuring Mick Jagger and Keith Richards)
TTITLE7=That's All Right (featuring Eric Clapton)
TTITLE8=Ludella (featuring Taj Mahal)
TTITLE9=Goin' Away Baby (featuring Mick Jagger and Keith Richards)
TTITLE10=Worried Life Blues (featuring Stephen Stills)
TTITLE11=Gonna Shoot You Right Down (Boom Boom) (featuring Jimmy Page, Robert Plant and Eric Clapton)
EXTD=YEAR: 1999
EXTT0=
EXTT1=
EXTT2=
EXTT3=
EXTT4=
EXTT5=
EXTT6=
EXTT7=
EXTT8=
EXTT9=
EXTT10=
EXTT11=
PLAYORDER=
